<?xml version="1.0" encoding="UTF-8" standalone="no"?>
<svg
   version="1.1"
   x="0px"
   y="0px"
   viewBox="0 0 35.870197 31.477027"
   width="35.870197"
   height="31.477026"
   xmlns="http://www.w3.org/2000/svg"
   xmlns:svg="http://www.w3.org/2000/svg">
  <path
     d="m 25.692185,0.21402656 c -0.018,0.018 -0.036,0.018 -0.054,0.036 -0.081,0.035 -0.159,0.076 -0.232,0.125 l -7.66,4.41000004 8.909,5.178 V 2.6556995e-5 c -0.332,0.003000003 -0.66,0.07600000301 -0.963,0.214000003005 z"
     style="fill:#81cadf" />
  <path
     d="m 9.9981847,31.245027 8.1060003,-4.678 -8.9270003,-5.142 v 10.052 c 0.29,-0.003 0.573,-0.083 0.821,-0.232 z"
     style="fill:#60bdd8" />
  <path
     d="m 35.763185,25.961027 -18.263,-10.551 v 0 l -0.857,-0.482 L 0.17918473,5.4100266 c -0.122,0.294 -0.183,0.61 -0.17899999793,0.928 V 25.425027 c 0,0.603 0.32799999793,1.157 0.85699999793,1.446 l 7.49999997,4.392 c 0.256,0.144 0.546,0.213 0.839,0.2 v -10.053 l 17.0510003,9.82 c 0.054,0.018 0.107,0.054 0.161,0.071 0.018,0 0.036,0.018 0.054,0.018 0.465,0.157 0.979,0.063 1.357,-0.25 l 2.857,-1.625 4.553,-2.714 c 0.261,-0.188 0.449,-0.459 0.534,-0.769 z"
     style="fill:#94d1e3" />
  <path
     d="M 35.870185,13.516027 V 6.3560266 c 0.003,-0.916 -0.496,-1.76 -1.3,-2.2 l -6.609,-3.83500004 c -0.395,-0.212 -0.837,-0.323 -1.286,-0.321000003005 V 9.9450266 l -14.926,-8.659 -1.66,-0.92800004 c -0.6360003,-0.402 -1.4390003,-0.436 -2.1070003,-0.089 -0.018,0 -0.036,0.018 -0.054,0.036 -0.089,0.037 -0.173,0.085 -0.25,0.143 l -2.625,1.53400004 -3.767,2.16 v 0 c -0.51199997,0.286 -0.90899997,0.741 -1.12499997,1.286 0.036,0 16.48000027,9.5000004 16.48000027,9.5000004 l 0.857,0.5 v 0 l 18.263,10.55 c 0.06,-0.318 0.09,-0.641 0.089,-0.964 l 0.018,-11.5 z"
     style="fill:#00a2c6" />
</svg>
