<?xml version="1.0" encoding="UTF-8" standalone="no"?>
<svg
   version="1.1"
   x="0px"
   y="0px"
   viewBox="0 0 73.313002 20.823319"
   width="73.313004"
   height="20.823318"
   xmlns="http://www.w3.org/2000/svg"
   xmlns:svg="http://www.w3.org/2000/svg">
  <g
     
     style="fill:#000000"
     transform="translate(-45.17,-5.337764)">
    <path
       d="M 59.796,26.032 H 58.939 L 58.493,23.05 h -0.018 l -0.875,2.3 h -0.604 l -0.875,-2.3 h -0.025 l -0.446,2.982 h -0.854 l 0.821,-4.624 h 0.625 l 1.053,2.625 h 0.018 l 1.053,-2.625 h 0.625 z"
       
       />
    <path
       d="M 55.976,18.107 H 53.851 L 47.78,9.537 h -0.018 v 8.57 h -2.286 v -12.5 h 2.125 l 6.071,8.588 H 53.69 V 5.607 h 2.286 z"
       
       />
    <path
       d="m 71.346,11.856 c -0.045,3.614 -3.01,6.507 -6.624,6.463 -3.551,-0.044 -6.419,-2.912 -6.463,-6.463 0.045,-3.614 3.01,-6.507 6.624,-6.463 3.551,0.044 6.419,2.912 6.463,6.463 z m -10.588,0 c -0.086,2.228 1.651,4.105 3.879,4.191 2.228,0.086 4.105,-1.651 4.191,-3.879 0.004,-0.104 0.004,-0.207 0,-0.311 0.086,-2.228 -1.651,-4.105 -3.879,-4.191 -2.228,-0.086 -4.105,1.651 -4.191,3.879 -0.004,0.104 -0.004,0.207 0,0.311 z"
       
       />
    <path
       d="m 76.97,13.124 h -0.857 v 4.983 h -2.285 v -12.5 h 4.606 c 2.482,0 4.035,1.535 4.035,3.785 0.083,1.775 -1.175,3.333 -2.928,3.624 l 3.7,5.089 h -2.875 z m -0.857,-2.018 h 1.964 c 1.321,0 1.946,-0.625 1.946,-1.678 0,-1.018 -0.625,-1.714 -1.946,-1.714 h -1.964 z"
       
       />
    <path
       d="m 95.702,11.856 c 0,3.892 -2.732,6.249 -6.5,6.249 h -4 V 5.607 h 4 c 3.767,0 6.5,2.357 6.5,6.249 z M 87.489,7.714 v 8.285 h 1.821 c 2.25,0 3.928,-1.446 3.928,-4.142 0,-2.696 -1.678,-4.142 -3.928,-4.142 z"
       
       />
    <path
       d="m 100.429,18.107 h -2.3 v -12.5 h 2.3 z"
       
       />
    <path
       d="m 102.896,11.856 c 0,-3.946 2.8,-6.517 6.749,-6.517 1.596,-0.029 3.16,0.453 4.464,1.375 l -1.321,2 c -0.92,-0.666 -2.025,-1.028 -3.16,-1.036 -2.307,-0.001 -4.179,1.868 -4.18,4.176 -10e-4,2.307 1.868,4.179 4.176,4.18 0.001,0 0.003,0 0.004,0 1.135,-0.008 2.24,-0.37 3.16,-1.036 l 1.321,2 c -1.304,0.922 -2.868,1.404 -4.464,1.375 -3.949,0 -6.749,-2.571 -6.749,-6.517 z"
       
       />
    <path
       d="m 45.172,25.694 0.375,-0.768 c 0.375,0.242 0.805,0.383 1.25,0.411 0.428,0 0.661,-0.2 0.661,-0.464 0,-0.232 -0.179,-0.393 -0.464,-0.607 l -0.75,-0.536 c -0.44,-0.248 -0.718,-0.709 -0.732,-1.214 0,-0.714 0.482,-1.178 1.375,-1.178 0.47,0.009 0.933,0.118 1.357,0.321 l -0.357,0.768 c -0.301,-0.17 -0.637,-0.267 -0.982,-0.286 -0.357,0 -0.482,0.125 -0.482,0.339 0,0.179 0.107,0.3 0.357,0.482 l 0.8,0.553 c 0.482,0.255 0.784,0.755 0.786,1.3 0,0.875 -0.607,1.339 -1.589,1.339 -0.566,-0.015 -1.12,-0.175 -1.607,-0.464"
       
       />
    <path
       d="m 52.992,25.247 v 0.786 h -2.767 v -4.625 h 2.75 v 0.786 h -1.893 v 0.928 h 1.732 v 0.786 h -1.732 v 1.339 z"
       
       />
    <path
       d="m 62.544,26.032 h -0.857 v -4.624 h 0.857 z"
       
       />
    <path
       d="M 62.545,26.032 H 61.67 v -4.624 h 0.875 z"
       
       />
    <path
       d="m 64.258,23.729 c -0.048,-1.286 0.956,-2.367 2.242,-2.415 0.086,-0.003 0.172,-0.002 0.258,0.005 0.587,-0.012 1.162,0.163 1.643,0.5 l -0.482,0.732 c -0.34,-0.241 -0.745,-0.371 -1.161,-0.375 -0.858,0 -1.553,0.696 -1.553,1.553 0,0.857 0.696,1.553 1.553,1.553 0.417,0.002 0.824,-0.129 1.161,-0.375 l 0.482,0.732 c -0.479,0.343 -1.054,0.525 -1.643,0.518 -1.303,0.076 -2.421,-0.918 -2.497,-2.221 -0.004,-0.068 -0.005,-0.138 -0.003,-0.207 z"
       
       />
    <path
       d="m 74.668,23.729 c 0.005,1.336 -1.074,2.423 -2.41,2.428 -1.336,0.005 -2.423,-1.074 -2.428,-2.41 -0.005,-1.336 1.074,-2.423 2.41,-2.428 1.291,-0.049 2.378,0.958 2.427,2.249 0.003,0.054 0.003,0.107 0.001,0.161 z m -3.91,0 c 0.029,0.828 0.724,1.475 1.552,1.446 0.828,-0.029 1.475,-0.724 1.446,-1.552 -0.029,-0.807 -0.691,-1.446 -1.498,-1.447 -0.811,-0.02 -1.483,0.622 -1.503,1.432 -10e-4,0.04 0,0.081 0.002,0.121 z"
       
       />
    <path
       d="m 80.327,26.032 h -0.786 l -2.25,-3.178 v 0 3.178 h -0.838 v -4.624 h 0.786 l 2.25,3.178 v 0 -3.178 h 0.839 z"
       
       />
    <path
       d="m 86.309,23.711 c 0.048,1.226 -0.908,2.259 -2.134,2.306 -0.092,0.004 -0.184,0.001 -0.276,-0.006 H 82.417 V 21.39 h 1.482 c 1.231,-0.097 2.308,0.822 2.405,2.053 0.007,0.089 0.009,0.179 0.005,0.268 z m -3.035,-1.535 v 3.071 h 0.679 c 0.848,-0.048 1.496,-0.775 1.448,-1.623 -0.045,-0.78 -0.667,-1.403 -1.448,-1.448 z"
       
       />
    <path
       d="m 91.88,24.19 c 0,1.055 -0.855,1.911 -1.91,1.911 -1.055,0 -1.911,-0.855 -1.911,-1.911 v -2.8 h 0.893 v 2.75 c -0.039,0.562 0.384,1.049 0.946,1.089 0.562,0.039 1.049,-0.384 1.089,-0.946 0.003,-0.048 0.003,-0.095 0,-0.143 v -2.75 h 0.893 z"
       
       />
    <path
       d="m 93.647,23.711 c -0.048,-1.286 0.956,-2.367 2.242,-2.415 0.086,-0.003 0.172,-0.002 0.258,0.005 0.587,-0.012 1.162,0.163 1.643,0.5 l -0.482,0.732 c -0.34,-0.241 -0.745,-0.371 -1.161,-0.375 -0.858,0 -1.554,0.696 -1.554,1.554 0,0.858 0.696,1.553 1.554,1.553 0.417,0.002 0.824,-0.129 1.161,-0.375 l 0.482,0.732 c -0.479,0.343 -1.054,0.525 -1.643,0.518 -1.297,0.082 -2.415,-0.903 -2.497,-2.2 -0.004,-0.076 -0.005,-0.153 -0.003,-0.229 z"
       
       />
    <path
       d="m 102.539,22.194 h -1.268 v 3.839 h -0.839 v -3.839 h -1.268 v -0.786 h 3.375 z"
       
       />
    <path
       d="m 108.681,23.711 c 0.005,1.336 -1.074,2.423 -2.41,2.428 -1.336,0.005 -2.423,-1.074 -2.428,-2.41 -0.005,-1.336 1.074,-2.423 2.41,-2.428 1.291,-0.049 2.378,0.958 2.427,2.249 0.003,0.054 0.003,0.107 10e-4,0.161 z m -3.91,0 c 0.029,0.828 0.724,1.475 1.552,1.446 0.828,-0.029 1.475,-0.724 1.446,-1.552 -0.029,-0.807 -0.691,-1.446 -1.498,-1.447 -0.811,-0.019 -1.483,0.623 -1.502,1.433 -0.001,0.04 0,0.08 0.002,0.12 z"
       
       />
    <path
       d="m 111.573,24.175 h -0.321 v 1.839 h -0.839 V 21.39 h 1.7 c 0.748,-0.077 1.417,0.468 1.493,1.216 0.006,0.059 0.008,0.118 0.007,0.177 0.023,0.656 -0.442,1.228 -1.089,1.339 l 1.375,1.893 h -1.076 z m -0.321,-0.75 h 0.732 c 0.482,0 0.714,-0.232 0.714,-0.625 0,-0.375 -0.232,-0.643 -0.714,-0.643 h -0.732 z"
       
       />
    <path
       d="m 116.662,7.161 v 0.661 h -0.125 V 6.375 h 0.643 c 0.268,0 0.482,0.125 0.482,0.375 0.016,0.167 -0.102,0.316 -0.268,0.339 0.157,0.043 0.256,0.196 0.232,0.357 V 7.5 c -0.005,0.1 10e-4,0.201 0.018,0.3 h -0.125 C 117.503,7.706 117.496,7.61 117.501,7.514 V 7.46 c 0,-0.25 -0.089,-0.321 -0.375,-0.321 h -0.464 z m 0,-0.125 h 0.482 c 0.25,0 0.393,-0.089 0.393,-0.286 0,-0.179 -0.125,-0.268 -0.375,-0.268 h -0.482 z"
       
       />
    <path
       d="m 117.679,7.857 h -0.214 V 7.821 C 117.449,7.745 117.443,7.667 117.447,7.589 V 7.482 c 0,-0.214 -0.071,-0.286 -0.339,-0.286 h -0.407 v 0.661 h -0.2 V 6.339 h 0.679 c 0.321,0 0.518,0.161 0.518,0.429 0.01,0.144 -0.069,0.279 -0.2,0.339 0.115,0.081 0.177,0.218 0.161,0.357 v 0.054 c -0.005,0.096 10e-4,0.192 0.018,0.286 z m -0.143,-0.089 h 0.054 V 7.447 c 0,-0.232 -0.125,-0.3 -0.2,-0.321 L 117.229,7.09 117.39,7.054 c 0.144,-0.023 0.246,-0.154 0.232,-0.3 0,-0.3 -0.3,-0.339 -0.446,-0.339 h -0.589 v 1.357 h 0.054 V 7.111 h 0.482 c 0.268,0 0.411,0.054 0.411,0.357 v 0.3 z m -0.393,-0.7 h -0.518 V 6.443 h 0.518 c 0.339,0 0.411,0.161 0.411,0.3 0.018,0.221 -0.125,0.328 -0.41,0.328 z m -0.429,-0.071 h 0.429 c 0.3,0 0.339,-0.125 0.339,-0.25 0,-0.054 0,-0.232 -0.339,-0.232 h -0.442 v 0.482 z"
       
       />
    <path
       d="m 117.073,8.429 c -0.759,0 -1.375,-0.616 -1.375,-1.375 0,-0.759 0.616,-1.375 1.375,-1.375 0.759,0 1.375,0.616 1.375,1.375 v 0 c 0,0.759 -0.615,1.375 -1.375,1.375 z m 0,-2.607 c -0.69,0 -1.25,0.56 -1.25,1.25 0,0.69 0.56,1.25 1.25,1.25 0.69,0 1.25,-0.56 1.25,-1.25 -10e-4,-0.69 -0.56,-1.248 -1.25,-1.25 z"
       
       />
    <path
       d="m 117.072,8.464 c -0.779,0 -1.411,-0.632 -1.411,-1.411 0,-0.779 0.632,-1.411 1.411,-1.411 0.779,0 1.411,0.632 1.411,1.411 -0.001,0.779 -0.632,1.41 -1.411,1.411 z m 0,-2.732 c -0.73,0 -1.321,0.591 -1.321,1.321 0,0.73 0.591,1.321 1.321,1.321 0.73,0 1.321,-0.591 1.321,-1.321 0,0 0,0 0,0 0.002,-0.728 -0.587,-1.319 -1.315,-1.321 -0.002,0 -0.004,0 -0.006,0 z m 0,2.607 c -0.71,0 -1.286,-0.576 -1.286,-1.286 0,-0.71 0.576,-1.286 1.286,-1.286 0.71,0 1.286,0.576 1.286,1.286 0.006,0.707 -0.563,1.284 -1.27,1.29 -0.005,0 -0.011,0 -0.016,0 z m 0,-2.482 c -0.663,0 -1.2,0.537 -1.2,1.2 0,0.663 0.537,1.2 1.2,1.2 0.663,0 1.2,-0.537 1.2,-1.2 0,-0.663 -0.537,-1.2 -1.2,-1.2 z"
       
       />
  </g>
</svg>
